Coordinates
version=1
nRows=27
nColumns=12
inDegrees=yes

Units are S.I. units (second, meters, Newtons, ...)
Angles are in degrees

endheader
time	SC_y	SC_z	SC_x	AC_y	AC_z	AC_x	GH_y	GH_z	GH_yy	EL_x	PS_y
       0.0              -39.66          16.88          48.92          66.51        -0.7417          15.26         -152.0          6.864         -41.33          72.54           99.6
   0.03226              -39.66          16.88          48.92          66.51        -0.7443          15.26         -152.0          6.861          -41.3          72.53           99.6
   0.06452              -39.67          16.88          48.91           66.5         -0.747          15.25         -152.0          6.859         -41.27          72.53          99.59
   0.09678              -39.67          16.88          48.91           66.5        -0.7499          15.25         -152.0          6.857         -41.24          72.52          99.58
     0.129              -39.67          16.89           48.9          66.49         -0.753          15.24         -152.0          6.854          -41.2          72.51          99.57
    0.1613              -39.67          16.89          48.89          66.49        -0.7562          15.23         -152.0          6.851         -41.17           72.5          99.56
    0.1936              -39.67           16.9          48.89          66.48        -0.7598          15.23         -152.0          6.848         -41.13          72.49          99.54
    0.2258              -39.68           16.9          48.88          66.47        -0.7635          15.22         -152.0          6.845         -41.09          72.48          99.53
    0.2581              -39.68           16.9          48.87          66.47        -0.7675          15.21         -152.0          6.841         -41.04          72.46          99.52
    0.2903              -39.68          16.91          48.86          66.46        -0.7719          15.21         -151.9          6.838         -40.99          72.45          99.51
    0.3226              -39.69          16.91          48.85          66.45        -0.7765           15.2         -151.9          6.834         -40.94          72.44          99.49
    0.3549              -39.69          16.92          48.84          66.44        -0.7815          15.19         -151.9          6.829         -40.89          72.42          99.47
    0.3871              -39.69          16.93          48.83          66.43        -0.7868          15.18         -151.9          6.825         -40.83           72.4          99.46
    0.4194               -39.7          16.93          48.82          66.42        -0.7927          15.17         -151.9           6.82         -40.76          72.39          99.44
    0.4516               -39.7          16.94          48.81          66.41        -0.7989          15.15         -151.8          6.814         -40.69          72.37          99.42
    0.4839              -39.71          16.95          48.79           66.4        -0.8058          15.14         -151.8          6.809         -40.62          72.35          99.39
    0.5162              -39.71          16.95          48.78          66.38        -0.8132          15.13         -151.8          6.802         -40.53          72.33          99.37
    0.5484              -39.72          16.96          48.76          66.37        -0.8212          15.11         -151.8          6.795         -40.45           72.3          99.34
    0.5807              -39.73          16.97          48.74          66.35          -0.83           15.1         -151.7          6.788         -40.35          72.27          99.32
     0.613              -39.73          16.98          48.72          66.33        -0.8397          15.08         -151.7          6.779         -40.24          72.24          99.28
    0.6452              -39.74           17.0           48.7          66.31        -0.8503          15.06         -151.7           6.77         -40.12          72.21          99.25
    0.6775              -39.75          17.01          48.68          66.29        -0.8619          15.04         -151.6           6.76         -39.99          72.18          99.21
    0.7097              -39.76          17.02          48.65          66.27        -0.8748          15.01         -151.6          6.749         -39.85          72.14          99.17
     0.742              -39.77          17.04          48.62          66.24        -0.8891          14.99         -151.5          6.737         -39.69           72.1          99.12
    0.7743              -39.78          17.06          48.59          66.21        -0.9049          14.96         -151.5          6.723         -39.52          72.05          99.07
    0.8065              -39.79          17.08          48.55          66.18        -0.9226          14.92         -151.4          6.708         -39.32          71.99          99.01
    0.8388              -39.81           17.1          48.51          66.14        -0.9425          14.89         -151.4          6.691          -39.1          71.93          98.95
